Jump_normalized_Motion_pl09
version=1
nRows=10
nColumns=43
inDegrees=yes
endheader
time		pelvis_tilt		pelvis_list		pelvis_rotation		pelvis_tx		pelvis_ty		pelvis_tz		hip_flexion_r		hip_adduction_r		hip_rotation_r		knee_angle_r		ankle_angle_r		subtalar_angle_r		mtp_angle_r		hip_flexion_l		hip_adduction_l		hip_rotation_l		knee_angle_l		ankle_angle_l		subtalar_angle_l		mtp_angle_l		lumbar_extension		lumbar_bending		lumbar_rotation		neck_flexion		neck_lateral_bending		neck_rotation		arm_flex_r		arm_add_r		arm_rot_r		elbow_flex_r		pro_sup_r		wrist_flex_r		wrist_dev_r		hand_finger_flex_r		arm_flex_l		arm_add_l		arm_rot_l		elbow_flex_l		pro_sup_l		wrist_flex_l		wrist_dev_l		hand_finger_flex_l		
0.650833		-1.112870		-15.524550		93.522226		-0.016443		1.760331		1.840104		77.237098		-7.278019		9.470185		-136.042236		26.036547		-5.384802		1.388319		77.215555		1.820633		2.305257		-134.779136		31.315535		-13.847982		-0.341365		-52.032970		1.290551		-2.883720		39.891943		0.744411		-3.212307		117.998060		-14.190348		37.422569		61.485327		63.926876		-36.892237		3.611554		33.346361		119.134846		-7.101085		24.832013		62.882238		112.845145		-16.402348		14.277230		70.697346		
0.654192		-1.131068		-16.001842		93.472564		-0.016418		1.761989		1.837280		77.118510		-7.435253		9.326799		-135.652554		26.288672		-5.347424		1.379226		77.165124		1.781546		2.304049		-134.444999		31.335503		-13.747073		-0.321922		-51.651979		1.237124		-2.908791		40.095261		0.759492		-3.204717		119.122017		-13.848966		37.431951		61.377582		63.913628		-36.825680		3.585258		33.247669		120.327725		-6.892045		24.885079		62.606556		112.716391		-16.527410		14.196620		70.566458		
0.657551		-1.136787		-16.444074		93.443960		-0.016412		1.763800		1.834326		76.928624		-7.617768		9.156370		-135.237812		26.559579		-5.266929		1.371244		77.051304		1.756250		2.314110		-134.092015		31.375095		-13.630706		-0.282997		-51.300685		1.207068		-2.929219		40.289795		0.768678		-3.193812		120.242472		-13.521479		37.476743		61.250539		63.853864		-36.744772		3.568400		33.152494		121.514586		-6.695584		24.975225		62.313464		112.511422		-16.688727		14.068804		70.430690		
0.660909		-1.094591		-16.791837		93.487662		-0.016460		1.765830		1.831215		76.573860		-7.850133		8.911134		-134.799006		26.914099		-5.089348		1.348324		76.820358		1.772962		2.403655		-133.734791		31.431220		-13.467442		-0.186587		-51.042567		1.256981		-2.930302		40.434534		0.782906		-3.172157		121.427488		-13.256937		37.665474		61.074653		63.647317		-36.585609		3.495611		33.030704		122.731594		-6.553310		25.222914		61.982495		112.020400		-17.017857		13.798147		70.225735		
0.664268		-1.024399		-17.139791		93.551518		-0.016500		1.767924		1.827976		76.200721		-8.084833		8.642129		-134.337869		27.212287		-4.897729		1.309016		76.558526		1.759651		2.499139		-133.351408		31.484917		-13.321329		-0.067736		-50.763373		1.335536		-2.913913		40.535998		0.766719		-3.151546		122.547800		-12.979589		37.803580		60.888404		63.391740		-36.445198		3.331809		32.888095		123.868648		-6.397313		25.422900		61.658373		111.435798		-17.439299		13.509619		69.991447		
0.667626		-1.006759		-17.633354		93.525572		-0.016464		1.769708		1.824837		76.061475		-8.253414		8.418648		-133.896555		27.406477		-4.842979		1.309251		76.480113		1.761754		2.513998		-133.020205		31.527683		-13.293311		-0.007869		-50.308876		1.315042		-2.903648		40.673262		0.757455		-3.139425		123.581800		-12.586486		37.761334		60.604612		63.348005		-36.423459		3.147906		32.803042		124.937718		-6.105900		25.343956		61.268566		111.253116		-17.695741		13.445122		69.822102		
0.670985		-0.968989		-18.090046		93.546210		-0.016488		1.771720		1.821562		75.829623		-8.417026		8.208668		-133.427445		27.608383		-4.750677		1.311655		76.320411		1.744855		2.552837		-132.628275		31.545395		-13.248603		0.066259		-49.899054		1.339599		-2.899733		40.750436		0.756765		-3.111517		124.642097		-12.256010		37.846770		60.282897		63.362979		-36.345738		2.858482		32.730188		125.983253		-5.847111		25.339198		60.885100		111.024699		-17.996770		13.377880		69.607323		
0.674343		-0.945707		-18.517598		93.551313		-0.016505		1.773930		1.818165		75.558604		-8.538769		8.032447		-132.931487		27.756537		-4.663282		1.310792		76.096985		1.721548		2.573065		-132.202758		31.560205		-13.202432		0.143181		-49.517164		1.348787		-2.896717		40.820286		0.741185		-3.082536		125.673605		-11.919534		37.924380		59.936799		63.431043		-36.281105		2.527665		32.653082		126.991093		-5.591957		25.300828		60.507312		110.809898		-18.298834		13.347859		69.392847		
0.677702		-0.947133		-18.875890		93.523929		-0.016537		1.776331		1.814640		75.215261		-8.620198		7.884092		-132.433905		27.866101		-4.590912		1.301247		75.780756		1.702133		2.592690		-131.766012		31.574713		-13.135771		0.247361		-49.212976		1.338521		-2.879033		40.883399		0.715873		-3.051060		126.715117		-11.585164		38.036937		59.549244		63.539866		-36.211603		2.131308		32.554966		128.000730		-5.364431		25.269539		60.126263		110.558467		-18.635806		13.351052		69.181674		
0.681061		-0.967249		-19.180691		93.464135		-0.016536		1.778924		1.810935		74.804521		-8.640003		7.766286		-131.923156		27.915458		-4.563422		1.277990		75.370530		1.656371		2.608589		-131.287356		31.588515		-13.019508		0.391009		-48.963290		1.298698		-2.852742		40.922575		0.679702		-3.027564		127.708757		-11.261489		38.131256		59.177833		63.628891		-36.156860		1.762772		32.426928		128.972501		-5.164626		25.244104		59.785362		110.283627		-18.966137		13.391699		69.053267		
